<svg width="200" height="208" viewBox="0 0 200 208" fill="none" xmlns="http://www.w3.org/2000/svg">
<path d="M45 139.467V68H48.1423C49.6592 68 50.8512 69.1911 50.8512 70.5988V136.868C50.8512 138.384 49.6592 139.467 48.1423 139.467H45ZM93.1094 99.8354V70.5988C93.1094 69.1911 94.3014 68 95.8183 68H98.9606V139.467H95.8183C94.3014 139.467 93.1094 138.384 93.1094 136.868V105.791H74.039C72.6304 105.791 71.4385 104.6 71.4385 103.084V99.8354H93.1094Z" fill="#0D2438"/>
<path d="M150.366 79.6263L127.611 118.244C126.636 119.868 124.144 119.868 123.169 118.135L94.4717 70.1657L98.7488 68C99.724 68 100.197 68.5414 100.739 69.2994L125.444 110.339L150.366 69.2994C150.907 68.5414 151.666 68 152.641 68H153.4C154.7 68 155.783 68.8663 156 70.1657V137.41V140.892C150.921 141.604 150.582 138.601 150.366 137.41V79.6263Z" fill="#0D2438"/>
</svg>
