<svg width="200" height="200" viewBox="0 0 200 200" fill="none" xmlns="http://www.w3.org/2000/svg">
<path d="M42.4413 133.467V62H45.5816C47.0975 62 48.2887 63.1911 48.2887 64.5988V130.868C48.2887 132.384 47.0975 133.467 45.5816 133.467H42.4413ZM90.5193 93.8354V64.5988C90.5193 63.1911 91.7105 62 93.2264 62H96.3667V133.467H93.2264C91.7105 133.467 90.5193 132.384 90.5193 130.868V99.791H71.4614C70.0537 99.791 68.8626 98.5999 68.8626 97.0839V93.8354H90.5193Z" fill="#F4F4F4"/>
<path d="M147.738 73.6263L124.998 112.244C124.024 113.868 121.533 113.868 120.559 112.135L91.8807 64.1657L96.155 62C97.1296 62 97.6026 62.5414 98.144 63.2994L122.833 104.339L147.738 63.2994C148.279 62.5414 149.037 62 150.012 62H150.77C152.069 62 153.152 62.8663 153.369 64.1657V131.41V134.892C148.293 135.604 147.955 132.601 147.738 131.41V73.6263Z" fill="#F4F4F4"/>
</svg>
