<svg width="200" height="200" viewBox="0 0 200 200" fill="none" xmlns="http://www.w3.org/2000/svg">
<path d="M32 143.11V55H35.8715C37.7405 55 39.209 56.4685 39.209 58.204V139.906C39.209 141.775 37.7405 143.11 35.8715 143.11H32ZM91.2742 94.2492V58.204C91.2742 56.4685 92.7428 55 94.6118 55H98.4833V143.11H94.6118C92.7428 143.11 91.2742 141.775 91.2742 139.906V101.592H67.7781C66.0426 101.592 64.5741 100.123 64.5741 98.2542V94.2492H91.2742Z" fill="#F4F4F4"/>
<path d="M161.818 69.3337L133.783 116.944C132.581 118.947 129.511 118.947 128.309 116.811L92.9526 57.67L98.2224 55C99.4239 55 100.007 55.6675 100.675 56.602L131.113 107.199L161.818 56.602C162.485 55.6675 163.42 55 164.621 55H165.556C167.158 55 168.493 56.068 168.76 57.67V140.574V144.867C162.502 145.745 162.085 142.042 161.818 140.574V69.3337Z" fill="#F4F4F4"/>
</svg>
